<svg width="600" height="200" viewBox="0 0 600 200" fill="none" xmlns="http://www.w3.org/2000/svg">
<rect width="600" height="200" fill="#0D1D31"/>
<path d="M281.878 36C276.975 36 273 39.9749 273 44.8781V82.1219C273 87.0251 276.975 91 281.878 91H292.801C293.529 89.7974 294.055 88.6738 294.266 88.159C294.692 86.9516 296.752 83.4684 297.728 81.8777C297.852 81.1142 300.221 79.4584 301.39 78.726C300.787 77.3055 297.129 73.9466 295.375 72.4447C289.427 68.4496 285.809 67.1548 284.744 67.0069C279.453 65.906 278.263 64.2103 278.329 63.5C278.329 63.5 278.64 61.4802 281.792 60.548C282.501 60.3382 282.989 60.4391 283.504 60.5457C284.043 60.6573 284.613 60.7752 285.499 60.548C286.884 60.1929 291.92 59.5418 294.266 59.2607C300.322 59.3983 304.55 62.8984 307.04 64.9606C307.361 65.226 307.653 65.4676 307.916 65.6751C309.762 67.1312 311.837 68.087 312.643 68.383C321.441 73.0484 325.96 75.023 328 75.7034V44.8781C328 39.9749 324.025 36 319.122 36H281.878Z" fill="#A88F81"/>
<path d="M309.293 91C307.403 89.3697 305.484 87.5439 304.187 86.2502C303.974 86.6231 302.5 87.249 301.79 87.5153C301.914 87.977 300.924 89.7201 300.414 90.5339C300.34 90.6856 300.24 90.8415 300.118 91H309.293Z" fill="#A88F81"/>
<path d="M250.284 117.091H255.568V140.051C255.568 142.494 254.994 144.659 253.847 146.545C252.699 148.42 251.085 149.898 249.006 150.977C246.926 152.045 244.489 152.58 241.693 152.58C238.909 152.58 236.477 152.045 234.398 150.977C232.318 149.898 230.705 148.42 229.557 146.545C228.409 144.659 227.835 142.494 227.835 140.051V117.091H233.102V139.625C233.102 141.205 233.449 142.608 234.142 143.835C234.847 145.062 235.841 146.028 237.125 146.733C238.409 147.426 239.932 147.773 241.693 147.773C243.466 147.773 244.994 147.426 246.278 146.733C247.574 146.028 248.563 145.062 249.244 143.835C249.938 142.608 250.284 141.205 250.284 139.625V117.091ZM272.618 152.511C270.504 152.511 268.618 151.972 266.959 150.892C265.311 149.801 264.016 148.25 263.072 146.239C262.141 144.216 261.675 141.79 261.675 138.96C261.675 136.131 262.146 133.71 263.089 131.699C264.044 129.687 265.351 128.148 267.01 127.08C268.669 126.011 270.55 125.477 272.652 125.477C274.277 125.477 275.584 125.75 276.572 126.295C277.572 126.83 278.345 127.455 278.891 128.17C279.447 128.886 279.879 129.517 280.186 130.062H280.493V117.091H285.589V152H280.612V147.926H280.186C279.879 148.483 279.436 149.119 278.857 149.835C278.288 150.551 277.504 151.176 276.504 151.71C275.504 152.244 274.209 152.511 272.618 152.511ZM273.743 148.165C275.209 148.165 276.447 147.778 277.459 147.006C278.482 146.222 279.254 145.136 279.777 143.75C280.311 142.364 280.578 140.75 280.578 138.909C280.578 137.091 280.317 135.5 279.794 134.136C279.271 132.773 278.504 131.71 277.493 130.949C276.482 130.187 275.232 129.807 273.743 129.807C272.209 129.807 270.93 130.205 269.908 131C268.885 131.795 268.112 132.881 267.589 134.256C267.078 135.631 266.822 137.182 266.822 138.909C266.822 140.659 267.084 142.233 267.607 143.631C268.129 145.028 268.902 146.136 269.925 146.955C270.959 147.761 272.232 148.165 273.743 148.165ZM309.449 141.142V125.818H314.562V152H309.551V147.466H309.278C308.676 148.864 307.71 150.028 306.381 150.96C305.063 151.881 303.42 152.341 301.455 152.341C299.773 152.341 298.284 151.972 296.989 151.233C295.705 150.483 294.693 149.375 293.955 147.909C293.227 146.443 292.864 144.631 292.864 142.472V125.818H297.96V141.858C297.96 143.642 298.455 145.062 299.443 146.119C300.432 147.176 301.716 147.705 303.295 147.705C304.25 147.705 305.199 147.466 306.142 146.989C307.097 146.511 307.886 145.79 308.511 144.824C309.148 143.858 309.46 142.631 309.449 141.142ZM326.507 136.455V152H321.411V125.818H326.303V130.08H326.626C327.229 128.693 328.172 127.58 329.456 126.739C330.751 125.898 332.382 125.477 334.348 125.477C336.132 125.477 337.695 125.852 339.036 126.602C340.376 127.341 341.416 128.443 342.155 129.909C342.893 131.375 343.263 133.187 343.263 135.347V152H338.166V135.96C338.166 134.062 337.672 132.58 336.683 131.511C335.695 130.432 334.337 129.892 332.609 129.892C331.428 129.892 330.376 130.148 329.456 130.659C328.547 131.17 327.825 131.92 327.291 132.909C326.768 133.886 326.507 135.068 326.507 136.455ZM366.683 141.142V125.818H371.797V152H366.786V147.466H366.513C365.911 148.864 364.945 150.028 363.615 150.96C362.297 151.881 360.655 152.341 358.689 152.341C357.007 152.341 355.518 151.972 354.223 151.233C352.939 150.483 351.928 149.375 351.189 147.909C350.462 146.443 350.098 144.631 350.098 142.472V125.818H355.195V141.858C355.195 143.642 355.689 145.062 356.678 146.119C357.666 147.176 358.95 147.705 360.53 147.705C361.484 147.705 362.433 147.466 363.376 146.989C364.331 146.511 365.121 145.79 365.746 144.824C366.382 143.858 366.695 142.631 366.683 141.142Z" fill="white"/>
</svg>
