<svg width="256" height="256" viewBox="0 0 256 256" fill="none" xmlns="http://www.w3.org/2000/svg">
<path d="M41.3236 0C18.5012 0 0 18.5012 0 41.3237V214.676C0 237.499 18.5012 256 41.3237 256H92.1631C95.5512 250.403 98.0031 245.173 98.9822 242.776C100.966 237.156 110.553 220.944 115.098 213.54C115.677 209.986 126.703 202.279 132.144 198.87C129.334 192.258 112.309 176.624 104.148 169.634C76.4608 151.038 59.6214 145.012 54.6626 144.323C30.0337 139.199 24.4963 131.306 24.8063 128C24.8063 128 26.2526 118.599 40.9225 114.26C44.2237 113.283 46.4932 113.753 48.8894 114.249C51.4008 114.769 54.0515 115.317 58.1751 114.26C64.6216 112.607 88.0659 109.577 98.9822 108.268C127.173 108.909 146.849 125.2 158.442 134.798C159.934 136.034 161.292 137.158 162.517 138.124C171.113 144.901 180.769 149.351 184.522 150.728C225.469 172.443 246.503 181.634 256 184.801V41.3236C256 18.5012 237.499 0 214.676 0H41.3236Z" fill="#A88F81"/>
<path d="M168.926 256C160.132 248.412 151.198 239.914 145.161 233.892C144.17 235.627 137.31 238.541 134.004 239.78C134.583 241.929 129.975 250.043 127.599 253.831C127.254 254.537 126.788 255.262 126.222 256H168.926Z" fill="#A88F81"/>
</svg>
